<?xml version="1.0" encoding="UTF-8"?>
<svg xmlns="http://www.w3.org/2000/svg">

	<symbol id="telegram" fill="none" viewBox="0 0 16 16">
		<path fill="#27A6E5"
			d="M8 0A7.98 7.98 0 0 0 .15 9.56a7.98 7.98 0 0 0 13.5 4.1A7.98 7.98 0 0 0 11.07.6 7.98 7.98 0 0 0 8 0Z" />
		<path fill="#FFF"
			d="M3.63 7.91c2.32-1.01 3.87-1.68 4.66-2 2.22-.92 2.69-1.08 2.99-1.1.06 0 .2.02.3.1.08.06.1.15.12.21 0 .07.03.2 0 .32a82.2 82.2 0 0 1-.9 5.75c-.11.6-.34.8-.55.82-.46.04-.81-.31-1.26-.6l-1.79-1.2c-.79-.52-.27-.81.17-1.27.13-.13 2.17-1.99 2.2-2.15 0-.03.02-.1-.03-.15-.04-.04-.11-.03-.16 0-.08 0-1.2.75-3.38 2.22-.26.2-.55.3-.88.31A5.9 5.9 0 0 1 3.9 8.9c-.5-.16-.9-.25-.86-.53.02-.15.2-.3.6-.45Z" />
	</symbol>

	<symbol id="github" fill="none" viewBox="0 0 16 16">
		<path fill="#8460bf"
			d="M8 0C3.58 0 0 3.58 0 8c0 3.54 2.29 6.53 5.47 7.59.4.07.55-.17.55-.38 0-.19-.01-.82-.01-1.49-2.01.37-2.53-.49-2.69-.94-.09-.23-.48-.94-.82-1.13-.28-.15-.68-.52-.01-.53.63-.01 1.08.58 1.23.82.72 1.21 1.87.87 2.33.66.07-.52.28-.87.51-1.07-1.78-.2-3.64-.89-3.64-3.95 0-.87.31-1.59.82-2.15-.08-.2-.36-1.02.08-2.12 0 0 .67-.21 2.2.82.64-.18 1.32-.27 2-.27.68 0 1.36.09 2 .27 1.53-1.04 2.2-.82 2.2-.82.44 1.1.16 1.92.08 2.12.51.56.82 1.27.82 2.15 0 3.07-1.87 3.75-3.65 3.95.29.25.54.73.54 1.48 0 1.07-.01 1.93-.01 2.2 0 .21.15.46.55.38A8.013 8.013 0 0016 8c0-4.42-3.58-8-8-8z"></path>
	</symbol>

	<symbol id="notabug" fill="none" viewBox="0 0 128 128">
		<path fill="#000"
			d="M73.9 9.607c.127-.38.531-.677.935-.592.32.084.447.423.51.719 1.107 4.909 1.49 10.008.809 15.023-.362-2.349-.723-4.676-1.063-7.025-.128-1.65-.532-3.28-.766-4.909-1.148 4.465-2.573 8.93-5.083 12.844-.255.444-.616.825-.701 1.333-.745 9.077-1.489 18.154-2.233 27.253 1.892.846 3.423 2.39 4.19 4.316 5.911-6.2 11.483-12.759 16.182-19.89 10.803-2.052 20.607-7.151 30.708-11.235 2.892 2.793 5.721 5.67 8.337 8.718.829 1.037 1.765 2.01 2.275 3.258-3.658-3.406-7.273-6.898-10.931-10.325-6.932 2.73-13.121 7.046-20.075 9.733-2.466.973-5.04 1.671-7.634 2.2-.49.148-1.127.106-1.425.614-1.36 1.84-2.616 3.766-4.104 5.523-3.956 5.565-8.4 10.748-12.462 16.229 0 .169 0 .36.021.529 4.977-1.44 9.889-3.005 14.844-4.465 1.212-.127 2.445-.021 3.679-.085.702-.084 1.233.445 1.829.72 5.125 2.687 10.845 3.978 16.481 5.036 1.106.254 2.275.338 3.381.677.723.465 1.531.91 2.02 1.63 2.446 3.279 4.806 6.833 5.529 10.917-1.382-3.11-3.423-5.903-5.784-8.337-.468-.444-.872-1.058-1.531-1.248-7.018-2.645-14.397-4.041-21.712-5.628-1.298-.254-2.574-.677-3.913-.762-1.021.254-1.957.72-2.935 1.079-4.509 1.693-8.996 3.407-13.525 5.057-.362.106-.383.571-.532.868 2.382.211 4.785.36 7.124.846.192.064.532.064.532.36.723 3.174 2.275 6.094 3.955 8.865 1.34 2.243 2.871 4.36 4.275 6.56.446.74.935 1.48 1.106 2.327-.064.106-.213.36-.298.466a34.725 34.725 0 0 1 2.892 11.108c.085.783.149 1.545.34 2.307-.106-.191-.276-.36-.34-.572l-.021-.169c-.064-.931-.383-1.84-.575-2.75-.765-2.794-1.594-5.629-3.168-8.083-.149-.402-.723-.212-.915-.572-1.743-2.158-2.764-4.76-4.04-7.194-1.659-3.237-3.19-6.559-5.402-9.458-2.126-.677-4.253-1.312-6.38-1.989-.127.275-.233.55-.34.825.872.339 1.766.614 2.637.931-.85 4.148-1.467 8.316-2.254 12.463-.425 2.053-.787 4.126-1.51 6.115-.212.53-.446 1.143-1.042 1.354-1.382 3.555-2.934 7.046-4.465 10.538-1.85 4.168-3.722 8.315-5.742 12.42-.51.994-.979 2.01-1.638 2.92 2.977-8.527 6.72-16.779 9.74-25.306-.425-1.291.042-2.645.361-3.894 1.574-5.205 3.892-10.156 5.55-15.34-.786-.317-1.551-.677-2.338-.931-1.425 1.756-2.297 3.893-3.85 5.544-.914 1.015-1.87 2.052-3.04 2.793-2.02 1.396-4.232 2.517-6.465 3.597-2.254.994-4.7 1.777-7.188 1.671-2-.169-4.062-.91-5.317-2.518-1.956-2.454-2.743-5.586-3.168-8.633-.617-.825-1.34-1.608-1.638-2.623-.723-2.032-.234-4.423 1.212-6.03.383-.487.915-.784 1.34-1.228.957-2.666 2.595-5.057 4.594-7.088-2.659-1.862-5.147-4-8.103-5.396-3.764 2.2-7.251 4.824-10.824 7.3-4.742 3.364-9.612 6.665-15.12 8.697-.49.084-.447.613-.49.973-.148 3.872-.51 7.744-.7 11.616-.15 1.46-.065 2.963-.405 4.401-.191.698-.66 1.27-1.085 1.841-.085-3.555.15-7.13.192-10.685.255-4.169.319-8.358 1-12.484 3.232-1.122 6.443-2.328 9.526-3.851 5.912-2.793 11.25-6.623 16.482-10.495 1.36-.085 2.7.339 3.934.889 1.786.74 3.402 1.82 5.04 2.835 1 .614 1.892 1.396 2.977 1.883.361-.17.617-.486.914-.74-2.785-2.497-5.784-4.761-8.378-7.47-.575-.529-1.042-1.163-1.638-1.65-3.551-2.666-7.018-5.48-10.93-7.617-.532-.212-1.106-.17-1.66-.254-3.125-.339-6.209-.953-9.356-1.27-.915-.063-1.787-.317-2.701-.275a3.041 3.041 0 0 1-2.36-1.016c2.551.106 5.082.445 7.634.614 2.892.296 5.806.423 8.676.762 2.765 1.438 5.338 3.195 8.018 4.782 2.169 1.248 4.338 2.581 6.72 3.385.489.17 1 .275 1.53.339 1.66 1.883 3.084 4.02 5.083 5.586.83.613 1.383 1.523 1.638 2.518 1.935-1.206 4.274-1.376 6.507-1.481-1.212-5.396-2.573-10.728-3.977-16.081-.148-.487-.553-.805-.829-1.206-2.786-3.64-4.55-7.935-6.507-12.04-1.234-1.63-2.446-3.301-3.445-5.1-.256-.486-.553-.973-.575-1.523 1.723 1.778 3.722 3.259 5.466 4.994.574.55.935 1.27 1.34 1.925 1.807 3.026 3.317 6.2 5.103 9.226.298.55.702 1.036.915 1.629 1.85 6.157 4.19 12.166 6.252 18.26 1.19.106 2.36.275 3.53.508 1.233-8.887 2.254-17.816 3.573-26.682.34-1.1 1.042-2.073 1.488-3.131 2.19-4.592 3.722-9.353 5.7-13.923ZM41.193 65.7a5.965 5.965 0 0 0-2.744 1.46c-1.998 1.82-2.403 5.078-.893 7.3 1.489 2.412 4.87 3.386 7.422 2.095 2.488-1.143 3.87-4.148 3.084-6.771-.745-2.878-3.956-4.803-6.87-4.084Zm13.185 2.116a5.96 5.96 0 0 0-2.744 1.46c-1.999 1.82-2.382 5.057-.893 7.3 1.489 2.412 4.87 3.385 7.422 2.095 2.488-1.143 3.87-4.148 3.083-6.771-.744-2.857-3.955-4.804-6.868-4.084Z" />
		<path fill="#FFF"
			d="M41.583 65.155a5.974 5.974 0 0 0-2.763 1.492c-2.013 1.86-2.42 5.192-.9 7.463 1.5 2.466 4.905 3.461 7.474 2.141 2.506-1.168 3.898-4.24 3.106-6.921-.75-2.942-3.984-4.91-6.917-4.175Zm13.277 2.163a5.975 5.975 0 0 0-2.762 1.492c-2.013 1.86-2.399 5.17-.9 7.463 1.5 2.466 4.904 3.461 7.474 2.142 2.506-1.168 3.898-4.24 3.106-6.922-.75-2.92-3.984-4.91-6.918-4.175Z" />
		<path fill="#000"
			d="M45.254 68.112c1.343-.515 2.86.845 2.427 2.143-.303 1.299-2.21 1.773-3.142.783-.975-.845-.563-2.576.715-2.926Zm1.17 1.298c-.411.227-.325.866.13 1.01.433.186.953-.309.758-.721-.108-.33-.563-.495-.888-.289Zm12.068 1.134c1.343-.515 2.882.824 2.427 2.143-.304 1.278-2.189 1.773-3.142.804-.975-.845-.563-2.576.715-2.947Zm1.148 1.319c-.325.206-.325.721 0 .927.368.268.932-.041.932-.474.021-.433-.542-.742-.932-.453Z" />
	</symbol>


	<symbol id="svelte" fill="none" viewBox="0 0 16 16">
		<path fill="#FF3E00"
			d="M13.67 2.12A4.7 4.7 0 0 0 7.28.72L3.65 3.08a4.17 4.17 0 0 0-1.89 2.86 4.48 4.48 0 0 0 .43 2.89 4.62 4.62 0 0 0 .14 5.04 4.7 4.7 0 0 0 6.39 1.4l3.63-2.37a4.18 4.18 0 0 0 1.89-2.86 4.48 4.48 0 0 0-.43-2.9 4.62 4.62 0 0 0-.14-5.04Z" />
		<path fill="#FFF"
			d="M6.93 14.08a2.81 2.81 0 0 1-2.5-.52 2.92 2.92 0 0 1-1.06-2.73c.02-.11.05-.23.09-.34l.06-.22.2.14c.42.33.9.57 1.41.73l.14.04-.01.14a.85.85 0 0 0 1.3.8l3.64-2.37c.19-.12.3-.29.34-.51a.81.81 0 0 0-.14-.63.85.85 0 0 0-1.15-.25l-1.4.9a2.61 2.61 0 0 1-1.6.43 2.82 2.82 0 0 1-1.63-.62 2.91 2.91 0 0 1-1.06-2.72 2.58 2.58 0 0 1 1.13-1.73l3.64-2.37a2.6 2.6 0 0 1 1.61-.42 2.82 2.82 0 0 1 1.63.61 2.91 2.91 0 0 1 1.06 2.73c-.02.11-.05.23-.09.34l-.06.22-.2-.14c-.42-.33-.9-.57-1.41-.73l-.14-.04.01-.14a.83.83 0 0 0-.14-.55.85.85 0 0 0-1.16-.26L5.8 6.25c-.19.12-.3.29-.34.51-.04.23 0 .44.14.63a.85.85 0 0 0 1.15.25l1.4-.9a2.6 2.6 0 0 1 1.6-.43 2.82 2.82 0 0 1 1.63.62 2.92 2.92 0 0 1 1.06 2.72 2.58 2.58 0 0 1-1.13 1.73l-3.64 2.37a2.6 2.6 0 0 1-.74.33Z" />
	</symbol>

	<symbol id="astro" viewBox="0 0 63 79">
		<path fill="#FF5D01"
			d="M19.5 66c-3.9-3.6-5-11-3.4-16.2 2.8 3.3 6.7 4.4 10.7 5 6.2 1 12.3.6 18-2.2l2-1.2c.6 1.5.7 3.1.5 4.7C47 60 45 63 41.8 65.2c-1.2 1-2.5 1.7-3.8 2.6-4 2.6-5 5.7-3.6 10.2l.2.5c-2-1-3.5-2.2-4.6-4a10.8 10.8 0 0 1-1.8-5.8l-.1-3.2c-.4-2.5-1.6-3.6-3.8-3.7a4.4 4.4 0 0 0-4.7 3.6l-.1.5Z" />
		<path fill="currentColor"
			d="M0 51.4s10.6-5.2 21.2-5.2l8-24.7c.3-1.2 1.2-2 2.2-2 1 0 1.9.8 2.2 2l8 24.7a45 45 0 0 1 21.2 5.2l-18-49C44.3.9 43.4 0 42.2 0H20.6c-1.2 0-2 1-2.6 2.4l-18 49Z" />
	</symbol>

	<symbol id="vue" fill="none" viewBox="0 0 24 24">
		<path fill="#42B883" d="M14.78 1.88 12 6.63 9.22 1.88H0L12 22.5 24 1.87h-9.22Z" />
		<path fill="#35495E" d="M14.78 1.88 12 6.63 9.23 1.88H4.8L12 14.24l7.2-12.38h-4.42Z" />
	</symbol>

	<symbol id="aiogram" fill="none" viewBox="0 0 16 16">
		<circle cx="8" cy="8" r="8" fill="#009CFB" />
		<path fill="#FFF"
			d="M7.18 8.33c.14.07.3.1.49.1.18 0 .34-.03.48-.1a.85.85 0 0 0 .46-.77.85.85 0 0 0-.46-.77c-.14-.07-.3-.1-.48-.1-.19 0-.35.03-.5.1a.85.85 0 0 0-.45.77.85.85 0 0 0 .46.77Zm-5.9-.22h.64l.11.29h.59l-.02-.06c.03.02.08.04.14.05.05.02.11.02.17.02.08 0 .15 0 .2-.03.06-.02.1-.05.12-.08a.19.19 0 0 0 .04-.12c0-.06-.01-.1-.04-.14a.23.23 0 0 0-.1-.06.94.94 0 0 0-.15-.03H2.9l-.03-.03c0-.02.03-.04.1-.04s.14.02.2.06l.08-.2a.47.47 0 0 0-.13-.04.82.82 0 0 0-.16-.01.54.54 0 0 0-.2.03.27.27 0 0 0-.11.08.2.2 0 0 0-.05.13c0 .05.02.1.05.13.03.03.07.05.1.06l.15.03h.08l.03.03c0 .01 0 .02-.02.03a.2.2 0 0 1-.07 0 .54.54 0 0 1-.25-.06l-.07.2-.71-1.63h-.56L.59 8.4h.58l.11-.3Zm5.23-1.39h-.57V8.4h.57V6.72Zm1.35 1.2a.36.36 0 0 1-.2.06.36.36 0 0 1-.32-.2.47.47 0 0 1-.05-.22c0-.08.02-.16.05-.22a.36.36 0 0 1 .33-.2.36.36 0 0 1 .32.2c.04.06.05.14.05.22 0 .08-.01.16-.05.22a.37.37 0 0 1-.13.15ZM1.6 7.29l.17.42h-.33l.16-.42Zm3.27.49a.28.28 0 0 0-.21-.08c-.04 0-.08 0-.12.02a.27.27 0 0 0-.1.06V7.7h-.27v.7h.3v-.33c0-.05 0-.08.02-.1a.1.1 0 0 1 .08-.04c.06 0 .09.04.09.12v.35h.29V8c0-.1-.03-.18-.08-.23Zm.38.6c.06.03.13.04.21.04.09 0 .16-.02.22-.05.06-.04.1-.09.13-.15l-.23-.11c-.03.06-.07.09-.12.09a.11.11 0 0 1-.09-.04c-.02-.02-.03-.06-.03-.1 0-.04.01-.08.03-.1a.11.11 0 0 1 .09-.04c.05 0 .1.03.12.1l.23-.12a.29.29 0 0 0-.13-.15.41.41 0 0 0-.22-.05.48.48 0 0 0-.21.04.34.34 0 0 0-.2.32.34.34 0 0 0 .2.32Zm-1.41.04.29-.71h-.28l-.14.38-.15-.38h-.3l.3.7c-.02.03-.04.04-.07.04l-.05-.01a.19.19 0 0 1-.05-.03l-.1.2c.02.02.05.03.1.04.03.02.07.02.11.02.08 0 .15-.02.2-.05a.4.4 0 0 0 .14-.2ZM7.72 8.73h-.3v.95h.3v-.95Zm-1.96.29h.27v.66h.3v-.66h.26v-.24h-.83v.24Zm1.57.38v-.07a.36.36 0 0 0-.05-.2.33.33 0 0 0-.14-.12.44.44 0 0 0-.19-.04.44.44 0 0 0-.2.04.35.35 0 0 0 0 .64.5.5 0 0 0 .23.04c.13 0 .23-.03.3-.11l-.15-.15a.27.27 0 0 1-.07.04.23.23 0 0 1-.07 0l-.1-.01a.12.12 0 0 1-.04-.06h.48Zm1.25 0v-.07a.36.36 0 0 0-.04-.2.33.33 0 0 0-.14-.12.44.44 0 0 0-.2-.04A.44.44 0 0 0 8 9a.35.35 0 0 0-.2.32.34.34 0 0 0 .2.32.5.5 0 0 0 .23.04c.14 0 .24-.03.3-.11l-.14-.15a.27.27 0 0 1-.07.04.23.23 0 0 1-.08 0l-.1-.01a.12.12 0 0 1-.04-.06h.48Zm-1.7-.21a.11.11 0 0 1 .07-.03c.03 0 .06.01.08.03l.04.07h-.23c0-.03.02-.06.04-.07Zm1.25 0a.11.11 0 0 1 .08-.03c.03 0 .05.01.07.03l.04.07h-.23c0-.03.02-.06.04-.07ZM10.23 8.94V7.89H9.7v.15c-.08-.12-.2-.18-.39-.18a.65.65 0 0 0-.31.08.6.6 0 0 0-.23.22c-.06.1-.09.21-.09.33 0 .13.03.24.09.34.05.1.13.17.23.22.1.05.2.08.31.08.16 0 .28-.05.36-.14V9c0 .1-.02.16-.07.2-.05.05-.13.08-.24.08a.78.78 0 0 1-.42-.13l-.18.37c.08.05.18.09.29.12.11.03.24.04.37.04.25 0 .45-.06.59-.19.14-.12.2-.31.2-.56Zm1.18-1.08c-.19 0-.33.06-.43.17v-.14h-.51V9.2H11v-.58c0-.2.1-.29.28-.29l.12.01v-.48Zm1.25.16c-.12-.1-.3-.16-.52-.16a1.31 1.31 0 0 0-.6.15l.18.36a.62.62 0 0 1 .34-.1c.14 0 .22.05.24.15h-.22c-.2 0-.35.03-.45.1a.33.33 0 0 0-.15.3.4.4 0 0 0 .22.35.6.6 0 0 0 .27.05c.19 0 .31-.06.37-.2v.18h.5v-.7c0-.22-.05-.38-.18-.48ZM15.2 8a.5.5 0 0 0-.38-.15.59.59 0 0 0-.25.06.54.54 0 0 0-.19.14.41.41 0 0 0-.17-.15.56.56 0 0 0-.24-.05.5.5 0 0 0-.37.15v-.12h-.52V9.2h.54v-.64c0-.08.02-.14.05-.18a.15.15 0 0 1 .13-.06c.1 0 .14.07.14.22v.66h.54v-.64c0-.08.02-.14.05-.18a.15.15 0 0 1 .12-.06c.1 0 .15.07.15.22v.66h.54v-.75c0-.2-.04-.34-.14-.44Zm-5.57.64a.23.23 0 0 1-.16.06.23.23 0 0 1-.17-.06.2.2 0 0 1-.06-.16.2.2 0 0 1 .06-.15c.05-.04.1-.05.17-.05.06 0 .11.01.15.05a.2.2 0 0 1 .07.15.2.2 0 0 1-.06.16Zm2.6.22a.18.18 0 0 1-.1.03.14.14 0 0 1-.1-.03.1.1 0 0 1-.03-.08c0-.07.06-.1.17-.1h.13v.08a.18.18 0 0 1-.06.1Z" />
	</symbol>


	<symbol id="neovim" fill="none" viewBox="0 0 16 16">
		<path fill="#16B0ED" d="M1.5 3.44 4.86 0v16L1.5 12.6V3.44Z" />
		<path fill="#7DB643" d="M14.48 3.47 11.08 0l.06 16 3.36-3.4-.02-9.13Z" />
		<path fill="#88C649" d="m4.86 0 8.73 13.52L11.14 16 2.41 2.51 4.86.01Z" />
		<path fill="#000" fill-opacity=".13" d="M4.86 6.27v.54l-2.7-4.04.25-.26 2.45 3.76Z" />
	</symbol>

	<symbol id="git" fill="none" viewBox="0 0 16 16">
		<path fill="#F05133"
			d="m15.7 7.3-7-7a1 1 0 0 0-1.4 0L5.8 1.8l1.8 1.8a1.2 1.2 0 0 1 1.6 1.6L11 6.9a1.2 1.2 0 1 1-.8.7L8.6 6v4.3a1.2 1.2 0 0 1 .3 2 1.2 1.2 0 1 1-1.3-2V5.9c-.2 0-.3-.2-.4-.3-.4-.3-.5-.9-.3-1.3L5.1 2.5.3 7.3a1 1 0 0 0 0 1.4l7 7c.4.4 1 .4 1.4 0l7-7c.4-.4.4-1 0-1.4Z" />
	</symbol>

	<symbol id="pixso" fill="none" viewBox="0 0 16 16">
		<path fill="#cc54ed"
			d="M7.4 6.5 4.6 3.3c.2-.5.6-1 1.1-1.5A5.8 5.8 0 0 1 10 0c1.6 0 3 .6 4.2 1.8A5.8 5.8 0 0 1 16 6c0 1.7-.6 3-1.8 4.2A5.8 5.8 0 0 1 10 12V8.6c.7 0 1.3-.3 1.8-.8s.7-1 .7-1.8c0-.7-.2-1.3-.7-1.8-.5-.5-1.1-.8-1.8-.8s-1.3.3-1.8.8-.8 1-.8 1.8v.5Z" />
		<path fill="#587cff" d="M4 9v7h.2c1.8 0 3.2-1.4 3.2-3.2v-1c-.4-.1-.9-.4-1.4-.8L4 9Z" />
		<path fill="#cc54ed"
			d="m.6 3.5-.6.6 5 5.3.7.8A5.8 5.8 0 0 0 10 12c1.6 0 3-.6 4.2-1.8A5.8 5.8 0 0 0 16 6h-3.5c0 .7-.2 1.3-.7 1.8-.5.5-1.1.8-1.8.8s-1.3-.3-1.8-.8L6 5.3 4.4 3.7c-1-1-2.7-1.2-3.8-.2Z" />
	</symbol>

	<symbol id="photoshop" fill="none" viewBox="0 0 16 16">
		<path fill="#001E36" fill-rule="evenodd"
			d="M2.83 0h10.34C14.73 0 16 1.3 16 2.9v10.2c0 1.6-1.27 2.9-2.83 2.9H2.83A2.87 2.87 0 0 1 0 13.1V2.9C0 1.3 1.27 0 2.83 0Z" />
		<path fill="#31A8FF"
			d="M3 11.28V4.61c0-.05.02-.07.07-.07h.39l.52-.02.6-.01.64-.01c.56 0 1.03.06 1.42.2.35.11.67.3.93.53.22.21.4.46.5.74.11.27.17.55.17.84 0 .56-.14 1.02-.42 1.38-.28.37-.67.64-1.12.8-.47.16-.99.22-1.55.22L4.8 9.2h-.3v2.07c.01.05-.02.09-.07.1H3.08c-.05 0-.08-.03-.08-.09Zm1.51-5.49v2.18l.27.01h.37c.27 0 .54-.04.8-.12.21-.05.4-.18.56-.34a.96.96 0 0 0 .22-.67c0-.2-.05-.4-.16-.57a1 1 0 0 0-.49-.37c-.25-.1-.53-.14-.82-.13H4.8l-.28.01ZM12.56 7.57a3.88 3.88 0 0 0-1.44-.3c-.14 0-.29.01-.42.04a.36.36 0 0 0-.21.13.33.33 0 0 0-.06.18c0 .06.03.11.07.17.06.07.15.13.24.17.15.08.32.15.49.21.37.12.73.28 1.06.48.23.13.42.32.55.54.11.2.17.43.16.66 0 .3-.09.61-.27.87-.2.25-.46.46-.78.57-.34.14-.75.21-1.25.21a5.09 5.09 0 0 1-1.65-.3c-.05-.02-.08-.06-.07-.11V9.96c0-.02 0-.05.02-.06.02-.01.05 0 .07 0a3.43 3.43 0 0 0 1.68.41c.26.01.44-.02.57-.08a.3.3 0 0 0 .18-.27c0-.1-.05-.18-.16-.26a3.02 3.02 0 0 0-.68-.3 4.36 4.36 0 0 1-.98-.47c-.22-.15-.4-.33-.53-.55a1.45 1.45 0 0 1 .08-1.45c.17-.26.43-.47.72-.6.33-.15.74-.22 1.23-.22.28 0 .57.02.86.06.2.02.4.07.6.14l.06.06.02.08v1.06c0 .02-.02.05-.04.06-.06.02-.1.02-.12 0Z" />
	</symbol>

	<symbol id="figma" fill="none" viewBox="0 0 16 16">
		<path fill="#0ACF83"
			d="M5.5 16C6.9 16 8 14.8 8 13.3v-2.6H5.5c-1.4 0-2.5 1.2-2.5 2.6C3 14.8 4.1 16 5.5 16Z" />
		<path fill="#A259FF" d="M3 8c0-1.5 1.1-2.7 2.5-2.7H8v5.4H5.5C4.1 10.7 3 9.5 3 8Z" />
		<path fill="#F24E1E" d="M3 2.7C3 1.2 4.1 0 5.5 0H8v5.3H5.5C4.1 5.3 3 4.1 3 2.7Z" />
		<path fill="#FF7262" d="M8 0h2.5C11.9 0 13 1.2 13 2.7c0 1.4-1.1 2.6-2.5 2.6H8V0Z" />
		<path fill="#1ABCFE"
			d="M13 8c0 1.5-1.1 2.7-2.5 2.7S8 9.5 8 8c0-1.5 1.1-2.7 2.5-2.7S13 6.5 13 8Z" />
	</symbol>

	<symbol id="tmux" fill="none" viewBox="0 0 16 16">
		<path fill="#1BB91F"
			d="M0 11.6h16v2.9c0 .8-.7 1.5-1.5 1.5h-13C.7 16 0 15.3 0 14.5v-2.9Zm0 0h16v3H0v-3Z" />
		<path fill="#3C3C3C"
			d="M8.3 7V0h-.6v14.6h.6v-7H16V7H8.3ZM0 1.5C0 .7.7 0 1.5 0h13c.8 0 1.5.7 1.5 1.5v13.1H0V1.5Z" />
	</symbol>

	<symbol id="marp" fill="none" viewBox="0 0 16 16">
		<path fill="#009BDA" d="M10.7 2.5 0 13.5h5.3L10.7 8V2.5Z" />
		<path fill="#78C5E9" d="M10.7 8v5.5H16v-11L10.7 8Z" />
		<path fill="#007AAD" d="M5.3 13.5h5.4V8l-5.4 5.5Z" />
	</symbol>


	<symbol id="site" fill="none" viewBox="0 0 16 16">
		<path fill="#7F6CFE"
			d="M10.9 4.9C10.4 2 9.3 0 8 0 6.7 0 5.6 2 5.1 4.9H11ZM4.9 8l.1 2h6a20.2 20.2 0 0 0 0-4H5L5 8Zm10.5-3.1A8 8 0 0 0 10.3.3c.8 1.1 1.3 2.8 1.6 4.6h3.5ZM5.7.3A8 8 0 0 0 .7 5H4C4.4 3.1 5 1.4 5.7.3Zm10 5.6H12a20.8 20.8 0 0 1 0 4.2h3.7a8 8 0 0 0 0-4.2ZM4 8V6H.4a8 8 0 0 0 0 4H4l-.1-2ZM5 11.1C5.6 14 6.7 16 8 16c1.3 0 2.4-2 2.9-4.9H5Zm5.2 4.6a8 8 0 0 0 5-4.6H12c-.3 1.8-.8 3.5-1.6 4.6ZM.6 11a8 8 0 0 0 5.1 4.6C5 14.6 4.4 12.9 4.1 11H.6Z" />
	</symbol>

	<symbol id="map" fill="none" viewBox="0 0 16 16">
		<path fill="#FF3535"
			d="M7.38 15.66C2.83 9.08 2 8.4 2 6A5.97 5.97 0 0 1 8.59.03 6.01 6.01 0 0 1 14 5.99c0 2.4-.84 3.1-5.38 9.68a.76.76 0 0 1-.44.3.76.76 0 0 1-.8-.3ZM8 8.5a2.51 2.51 0 0 0 2.49-2.74 2.45 2.45 0 0 0-.72-1.52A2.5 2.5 0 1 0 8 8.49Z" />
	</symbol>

	<symbol id="code" fill="none" viewBox="0 0 16 16">
		<path fill="#3f51b5"
			d="M6.26 10.9 5.85 12h1.4L9.4 6.11l3.8 1.72q.17.08.37.13l.32.07-.32.07q-.2.06-.37.14L10.7 9.33v1.23l4.14-1.88V7.39L9.78 5.06l.57-1.53h-1.4l-2.3 6.31L3 8.24q-.18-.08-.38-.13l-.32-.07.32-.07q.2-.06.38-.14l2.48-1.09V5.52L1.35 7.4V8.7l4.9 2.2Z" />
	</symbol>

	<symbol id="mail" fill="none" viewBox="0 0 16 16">
		<path fill="#F2F2F2" d="M2 14.2V3.6h12v10.6H2Z" />
		<path fill="#000" fill-opacity=".1" d="m8 9.5-6 4.7-.2-9.4L8 9.5Z" />
		<path fill="#D54C3F" d="M2 14.2H1a1 1 0 0 1-1-1v-10h2v11Z" />
		<path fill="#000" fill-opacity=".1" d="M10.7 14.2h3.4V4H.3l10.4 10.3Z" />
		<path fill="#F2F2F2" d="M1 2.2h14l-7 5-7-5Z" />
		<path fill="#B63524" d="M14 14.2h1c.6 0 1-.4 1-1v-10h-2v11Z" />
		<path stroke="#DE5145" stroke-linecap="round" stroke-width="2" d="m1 3.2 7 5.1 7-5" />
	</symbol>

	<symbol id="arrow-left" fill="none" viewBox="0 0 16 16">
		<path stroke="currentColor" d="M2 8h12m-8 4L2 8l4-4" stroke-width="2"
			stroke-linecap="round" stroke-linejoin="round" />
	</symbol>

	<symbol id="aiohttp" viewBox="0 0 24 24" fill="none">
		<path
			d="M0 11.9A11.92 11.92 0 0 1 11.9 0a11.92 11.92 0 0 1 11.9 11.9 11.92 11.92 0 0 1-11.9 11.9A11.92 11.92 0 0 1 0 11.9zm11.9 10.91a10.86 10.86 0 0 0 6.75-2.35l-.3-.65a.74.74 0 0 1-.23.04.74.74 0 0 1-.74-.74.74.74 0 0 1 .36-.63l-.72-1.55a1.23 1.23 0 0 1-.38.06 1.24 1.24 0 0 1-1.15-.79l-2.45.63a.74.74 0 0 1-.75.75.74.74 0 0 1-.74-.74.74.74 0 0 1 .02-.18l-3.44-1.48a1.23 1.23 0 0 1-1.07.62 1.24 1.24 0 0 1-.2-.02l-.74 2.57a.74.74 0 0 1 .4.66.74.74 0 0 1-.57.72L6 21.08a10.84 10.84 0 0 0 5.9 1.73zm-6.2-1.94-.04-1.13a.74.74 0 0 1-.62-.73.74.74 0 0 1 .74-.74h.06l.74-2.57a1.24 1.24 0 0 1-.75-1.13L1.19 14a10.94 10.94 0 0 0 4.51 6.87zm13.2-.6a10.99 10.99 0 0 0 2.7-3.4l-3.79-.74a1.24 1.24 0 0 1-.52.67l.73 1.57a.75.75 0 0 1 .1 0 .74.74 0 0 1 .74.74.74.74 0 0 1-.25.55zm2.84-3.67a10.84 10.84 0 0 0 1.07-4.7A10.86 10.86 0 0 0 20.34 5l-1.5.5a.74.74 0 0 1 .02.18.74.74 0 0 1-.74.74.74.74 0 0 1-.67-.44l-3.12 1.06a2.47 2.47 0 0 1 .09.66 2.47 2.47 0 0 1-1.1 2.06l2.84 4.86a1.23 1.23 0 0 1 .48-.1 1.23 1.23 0 0 1 1.24 1.23v.1zm-8.77-.06 2.45-.63a1.25 1.25 0 0 1-.01-.16 1.23 1.23 0 0 1 .49-.98L13.07 9.9a2.46 2.46 0 0 1-1.12.26 2.46 2.46 0 0 1-1.3-.37L7.9 13.66a1.23 1.23 0 0 1 .4.9 1.24 1.24 0 0 1-.05.35l3.45 1.48a.74.74 0 0 1 .6-.3.74.74 0 0 1 .67.45zm-7.1-2.27a1.24 1.24 0 0 1 1.2-.94 1.23 1.23 0 0 1 .59.15l2.75-3.85a2.46 2.46 0 0 1-.93-1.93 2.46 2.46 0 0 1 .61-1.62L6.42 2.47A10.92 10.92 0 0 0 1 11.9a10.93 10.93 0 0 0 .15 1.8zm8.36-7.5 3.15-1.08v-.01a.74.74 0 0 1 .74-.74.74.74 0 0 1 .6.3l1.41-.49A10.89 10.89 0 0 0 11.9.99 10.84 10.84 0 0 0 6.7 2.3l3.6 3.55a2.46 2.46 0 0 1 1.65-.63 2.47 2.47 0 0 1 2.28 1.53z"
			fill="#2c5bb4" />
	</symbol>

	<symbol id="pwa" viewBox="0 0 1952 735">
		<path fill="var(--text-color, currentColor)"
			d="m1437 603 56-142h163l-77-217 96-244 277 735h-204l-47-132h-264Z" />
		<path fill="#5A0FC8"
			d="M1262 735 1559 0h-197l-202 475L1016 0H864L710 475 601 259l-99 304 100 172h193l140-426 134 426h193Z" />
		<path fill="var(--text-color, currentColor)"
			d="M186 483h121c37 0 70-4 98-13l32-96 87-269c-7-11-14-21-23-30C456 25 391 0 304 0H0v735h186V483Zm161-314c17 18 26 41 26 71s-8 53-23 71c-17 19-48 29-94 29h-70V143h71c42 0 72 8 90 26Z" />
	</symbol>

	<symbol id="more" fill="none" viewBox="0 0 24 24">
		<circle cx="5" cy="12" r="2" fill="currentColor" stroke-linecap="round"
			stroke-linejoin="round" />
		<circle cx="12" cy="12" r="2" fill="currentColor" stroke-linecap="round"
			stroke-linejoin="round" />
		<circle cx="19" cy="12" r="2" fill="currentColor" stroke-linecap="round"
			stroke-linejoin="round" />
	</symbol>

	<symbol id="bot" viewBox="0 0 24 24">
		<path fill="#5478b6" fill-rule="nonzero"
			d="M17.8 14c1.2 0 2.2 1 2.2 2.2v1c0 1-.5 2-1.3 2.8a10 10 0 0 1-6.7 2c-2.9 0-5.1-.7-6.7-2A3.7 3.7 0 0 1 4 17.2v-1C4 15 5 14 6.3 14h11.5ZM11.9 2h.1c.4 0 .7.3.7.6V3.5h3.6c1.2 0 2.2 1 2.2 2.3v4.5c0 1.2-1 2.2-2.3 2.2H7.8c-1.3 0-2.3-1-2.3-2.2V5.7c0-1.2 1-2.2 2.3-2.2h3.4v-.7c0-.4.3-.7.7-.8h.1-.1ZM9.7 6.5a1.2 1.2 0 1 0 0 2.5 1.2 1.2 0 0 0 0-2.5Zm4.5 0a1.2 1.2 0 1 0 0 2.5 1.2 1.2 0 0 0 0-2.5Z" />
	</symbol>


</svg>